<?xml version="1.0" standalone="no"?>
<!DOCTYPE svg PUBLIC "-//W3C//DTD SVG 20010904//EN"
 "http://www.w3.org/TR/2001/REC-SVG-20010904/DTD/svg10.dtd">
<svg version="1.0" xmlns="http://www.w3.org/2000/svg"
 width="700.000000pt" height="700.000000pt" viewBox="0 0 700.000000 700.000000"
 preserveAspectRatio="xMidYMid meet">
<metadata>
Created by potrace 1.11, written by Peter Selinger 2001-2013
</metadata>
<g transform="translate(0.000000,700.000000) scale(0.100000,-0.100000)"
fill="#000000" stroke="none">
<path d="M3300 6994 c-339 -25 -707 -103 -1008 -215 -163 -60 -456 -201 -602
-289 -253 -152 -440 -299 -661 -519 -297 -298 -481 -558 -670 -946 -241 -497
-353 -979 -353 -1525 0 -550 115 -1043 360 -1540 186 -379 371 -638 663 -931
298 -297 558 -481 946 -670 497 -241 979 -353 1525 -353 546 0 1028 112 1525
353 388 189 648 373 946 670 297 298 481 558 670 946 241 497 353 979 353
1525 0 546 -112 1028 -353 1525 -189 388 -373 648 -670 946 -298 297 -558 481
-946 670 -362 176 -703 278 -1103 330 -151 19 -495 32 -622 23z m480 -1185
c549 -49 1028 -264 1424 -638 114 -108 170 -240 170 -401 0 -150 -57 -295
-150 -382 -159 -148 -444 -174 -639 -59 -27 16 -88 64 -135 106 -191 173 -405
278 -654 321 -124 22 -356 15 -482 -14 -468 -109 -837 -473 -958 -947 -56
-220 -41 -492 39 -717 147 -410 482 -710 915 -818 119 -30 361 -38 486 -16
249 43 463 148 654 321 148 133 247 176 410 177 307 2 514 -204 514 -512 0
-161 -56 -293 -170 -401 -524 -495 -1235 -724 -1934 -623 -427 61 -837 242
-1160 512 -530 443 -830 1087 -830 1782 0 694 301 1340 830 1782 458 383 1084
581 1670 527z"/>
</g>
</svg>
