<svg xmlns="http://www.w3.org/2000/svg" viewBox="0 0 40 40"><path d="M40 20a20 20 0 0 1-20 20A20 20 0 0 1 0 20 20 20 0 0 1 20 0a20 20 0 0 1 20 20z" fill="#fb7f15"/><path d="M20.5 6.8a13.2 13.2 0 0 0-9.3 22.6 13.3 13.3 0 0 0 18.7 0 3 3 0 1 0-4.2-4.3 7.2 7.2 0 0 1-10.3 0 7.2 7.2 0 0 1 0-10.2 7.2 7.2 0 0 1 10.3 0 3 3 0 1 0 4.2-4.3c-2.6-2.6-6-3.8-9.4-3.8z" style="line-height:normal;font-variant-ligatures:normal;font-variant-position:normal;font-variant-caps:normal;font-variant-numeric:normal;font-variant-alternates:normal;font-feature-settings:normal;text-indent:0;text-align:start;text-decoration-line:none;text-decoration-style:solid;text-decoration-color:#000;text-transform:none;text-orientation:mixed;shape-padding:0;isolation:auto;mix-blend-mode:normal" color="#000" font-weight="400" font-family="sans-serif" white-space="normal" overflow="visible" fill="#fff"/></svg>