<svg xmlns="http://www.w3.org/2000/svg" viewBox="0 0 40 40"><g stroke-width="1"><path d="M40 20a20 20 0 0 1-20 20A20 20 0 0 1 0 20 20 20 0 0 1 20 0a20 20 0 0 1 20 20z" fill="#00ba0e"/><path d="M21.2 35.45h-2.7l-.01-5q-2.09-.09-4.03-.47-1.95-.38-3.8-1.07v-4.36q1.92.98 3.86 1.52 1.97.51 3.98.58v-5.18l-.55-.1q-3.98-.7-5.66-2.2-1.66-1.5-1.66-4.3 0-2.98 2.03-4.65 2.05-1.68 5.83-1.83l.01-3.84h2.7v3.77q1.66.14 3.33.42 1.66.28 3.34.73v4.23q-1.66-.7-3.33-1.08-1.66-.4-3.34-.48v4.77l.53.1q4.23.67 5.93 2.23 1.71 1.55 1.71 4.6 0 3.06-2.03 4.7-2.03 1.64-6.14 1.87zm-2.7-18.92v-4.34q-1.18.06-1.9.64-.7.57-.7 1.45 0 .98.65 1.55.65.55 1.95.7zm2.7 5.43v4.62q1.45-.01 2.16-.56.73-.55.73-1.65 0-1.13-.66-1.68-.67-.57-2.23-.73z" font-weight="700" fill="#fff" aria-label="$" font-size="34.16" font-family="sans-serif" letter-spacing="0" word-spacing="0" text-anchor="end" stroke-width=".27"/></g></svg>